<svg xmlns="http://www.w3.org/2000/svg" viewBox="0 0 32 32" width="32" height="32">
  <!-- Bison silhouette -->
  <path d="M8 12c-2 0-3 1-3 3s1 3 3 3c1 0 2-1 2-2s-1-2-2-2zm16 0c-1 0-2 1-2 2s1 2 2 2c2 0 3-1 3-3s-1-3-3-3z" fill="#8B4513"/>
  <path d="M16 4c-6 0-10 4-10 10s4 10 10 10 10-4 10-10-4-10-10-10zm0 18c-4 0-8-4-8-8s4-8 8-8 8 4 8 8-4 8-8 8z" fill="#654321"/>
  <path d="M12 8c-1 0-2 1-2 2s1 2 2 2 2-1 2-2-1-2-2-2zm8 0c-1 0-2 1-2 2s1 2 2 2 2-1 2-2-1-2-2-2z" fill="#8B4513"/>
  <path d="M16 10c-1 0-2 1-2 2s1 2 2 2 2-1 2-2-1-2-2-2z" fill="#654321"/>
</svg>
